<?xml version="1.0" encoding="UTF-8"?>
<svg width="436px" height="376px" viewBox="0 0 436 376" version="1.1" xmlns="http://www.w3.org/2000/svg" xmlns:xlink="http://www.w3.org/1999/xlink">
    <title>logo</title>
    <g id="dashboard" stroke="none" stroke-width="1" fill="none" fill-rule="evenodd">
        <g id="logo" transform="translate(-92, -152)">
            <g id="bg-circle-header">
                <path d="M264,0 C409.803174,0 528,118.196826 528,264 C528,409.803174 409.803174,528 264,528 C118.196826,528 0,409.803174 0,264 C0,118.196826 118.196826,0 264,0 Z M264,132 C191.098413,132 132,191.098413 132,264 C132,336.901587 191.098413,396 264,396 C336.901587,396 396,336.901587 396,264 C396,191.098413 336.901587,132 264,132 Z" id="Combined-Shape" fill="#E119A0" opacity="0.239999995"></path>
                <circle id="Oval-Copy-3" fill="#3C3291" opacity="0.319999993" cx="264" cy="264" r="132"></circle>
            </g>
            <g id="logo-steadii-reversed" transform="translate(178, 240)" fill-rule="nonzero">
                <g id="Group" transform="translate(160.4882, 0)" fill="#E119A0">
                    <path d="M4.59599389,23.5288523 L4.59599389,39.9080533 C4.59599389,40.5125238 5.06370019,41 5.643656,41 L10.4641489,41 C11.0441047,41 11.511811,40.5385225 11.511811,39.934052 L11.4556863,23.5288523 C11.4556863,16.5611921 8.29399169,12.4208941 2.50690576,11.705929 C1.88953345,11.6279328 1.35946631,12.1479074 1.35946631,12.791376 L1.35946631,17.7701332 C1.35946631,18.225111 1.62761792,18.65409 2.04543554,18.7905834 C3.76035864,19.3690552 4.59599389,20.9289791 4.59599389,23.5288523 Z" id="Path"></path>
                    <path d="M8.91760009,4.6472733 C8.91760009,7.21464807 6.92205322,9.29454661 4.45880004,9.29454661 C1.99554687,9.29454661 0,7.21464807 0,4.6472733 C0,2.07989854 1.99554687,0 4.45880004,0 C6.92205322,0 8.91760009,2.07989854 8.91760009,4.6472733 Z" id="Path"></path>
                </g>
                <g id="Group" fill="#FFFFFF">
                    <path d="M103.060158,15.2887911 L103.060158,15.2887911 C100.152673,12.6203427 96.6585906,11.2732275 92.6863035,11.2732275 C88.5737431,11.2732275 85.0350283,12.7428077 82.1658001,15.6368496 C79.3475804,18.550228 77.9193423,22.082377 77.9193423,26.1301682 C77.9193423,30.2810879 79.309324,33.7358906 82.1721761,36.6943877 C84.9903959,39.5433108 88.5291106,40.9935545 92.6863035,40.9935545 C95.8615827,40.9935545 99.1580072,39.6335482 99.9996474,39.0598962 C100.139921,38.9567678 100.273818,38.8665304 100.388587,38.7891841 L100.388587,39.581984 C100.388587,40.1749725 100.866792,40.6648326 101.459766,40.6648326 L106.382086,40.6648326 C106.97506,40.6648326 107.453265,40.181418 107.453265,39.581984 L107.453265,26.3364251 C107.453265,21.6763088 105.974018,17.963685 103.060158,15.2887911 Z M100.388587,26.1301682 C100.388587,30.6807106 97.0794107,34.1161767 92.6863035,34.1161767 C88.2931963,34.1161767 84.9840198,30.6807106 84.9840198,26.1301682 C84.9840198,21.5796258 88.2931963,18.1441597 92.6863035,18.1441597 C97.1495474,18.1441597 100.388587,21.5022795 100.388587,26.1301682 Z" id="Shape"></path>
                    <path d="M139.894672,0.438295865 L134.972351,0.438295865 C134.385754,0.438295865 133.901173,0.921710423 133.901173,1.52114447 L133.901173,13.4711523 L133.639754,13.2648955 C132.20514,12.2722842 129.189262,11.2732275 126.198889,11.2732275 C122.016192,11.2732275 118.477477,12.7428077 115.684762,15.6368496 C112.866542,18.4857727 111.431928,22.0179217 111.431928,26.1366137 C111.431928,30.184405 112.860166,33.716554 115.684762,36.6363779 C118.547614,39.5304197 122.086329,41 126.198889,41 C130.177552,41 133.665258,39.6464392 136.572743,36.9844364 C139.486604,34.3095425 140.96585,30.5969187 140.96585,25.9432479 L140.96585,1.52114447 C140.96585,0.921710423 140.481269,0.438295865 139.894672,0.438295865 Z M133.901173,26.1301682 C133.901173,30.7580569 130.662133,34.1161767 126.198889,34.1161767 C121.805782,34.1161767 118.496605,30.6807106 118.496605,26.1301682 C118.496605,21.5796258 121.805782,18.1441597 126.198889,18.1441597 C130.591996,18.1441597 133.901173,21.5796258 133.901173,26.1301682 Z" id="Shape"></path>
                    <path d="M42.0476136,33.7874548 L39.031736,33.7874548 C36.188012,33.7874548 34.8107825,32.1954095 34.8107825,28.9210816 L34.8107825,18.4793271 L39.8733762,18.4793271 C40.4663501,18.4793271 40.9445548,17.9959126 40.9445548,17.3964785 L40.9445548,12.684798 C40.9445548,12.0918095 40.4663501,11.6019494 39.8733762,11.6019494 L34.8107825,11.6019494 L34.8107825,5.11130325 C34.8107825,4.51831473 34.3325778,4.02845465 33.7396039,4.02845465 L28.8810442,4.02845465 C28.2880703,4.02845465 27.8098656,4.5118692 27.8098656,5.11130325 L27.8098656,28.9275271 C27.8098656,38.6280459 33.9117576,40.6648326 39.0253599,40.6648326 L42.0412376,40.6648326 C42.6278353,40.6648326 43.1124161,40.181418 43.1124161,39.581984 L43.1124161,34.8703034 C43.1124161,34.2708694 42.6342114,33.7874548 42.0476136,33.7874548 Z" id="Path"></path>
                    <path d="M59.8687088,11.266782 L59.8623328,11.266782 C55.7370202,11.266782 52.3194506,12.6912435 49.4183421,15.6239585 C46.5108575,18.5566735 45.1017476,21.9921396 45.0953716,26.1172772 C45.0953716,30.2681968 46.4853532,33.7229995 49.3418293,36.6879421 C52.2684421,39.5755384 55.6860117,40.9871089 59.7921961,40.9871089 C63.9111326,40.9871089 67.4562234,39.1823613 69.241521,37.6354347 C70.2935713,36.649269 71.1288356,35.6953309 71.7919461,34.7156108 C71.9322195,34.5093539 72.1298774,34.2064141 72.3721678,33.8196824 C72.5570736,33.5231882 72.5889539,33.1686842 72.4614327,32.8464078 C72.3339114,32.5241314 72.0724928,32.2856469 71.7345615,32.2018551 L67.0290272,30.9707593 C66.595455,30.8547398 66.1363785,31.0287691 65.881336,31.4026097 L65.6007892,31.8151234 C64.8866702,32.7561704 62.6996807,34.2515328 59.8559567,34.2515328 C56.5786605,34.2515328 53.7604408,32.2856469 52.6318777,29.2304669 L73.0097741,29.243358 C73.0097741,29.243358 73.0097741,29.243358 73.0097741,29.243358 C73.5708676,29.243358 74.0363201,28.7986166 74.0745765,28.2378557 L74.0809526,28.1153907 C74.2786105,25.2277944 74.6484222,19.8522245 69.9173836,15.2372269 C67.1884288,12.562333 63.8983805,11.266782 59.8687088,11.266782 Z M66.9397624,22.7591574 L52.7020144,22.7527118 C53.8050732,19.8199969 56.4638914,18.0732589 59.8559567,18.0732589 L59.8623328,18.0732589 C63.5987055,18.0732589 66.2638997,20.4581041 66.9397624,22.7591574 Z" id="Shape"></path>
                    <path d="M21.9311358,27.5997485 C20.9555982,26.4395535 19.7824027,25.5629618 18.4498056,25.0086464 C17.1299606,24.4607766 15.4339279,23.9193523 13.4127161,23.4037101 C11.4361366,22.8945134 9.96326614,22.3853168 9.03236099,21.8954567 C7.98668671,21.3475869 7.57224263,20.554787 7.72526814,19.4010376 C7.75714845,19.1818896 7.81453301,18.9885238 7.90379789,18.8209401 C8.43938716,17.7961012 9.66359119,17.2740135 11.5509058,17.2740135 C12.896255,17.2740135 13.9801856,17.6027354 14.7771935,18.2408426 C15.3574152,18.7113661 15.746355,19.2850181 15.9567651,19.9875806 C16.1289188,20.567678 16.6836362,20.9737463 17.3021143,20.9737463 L21.8354949,20.9737463 C22.1989304,20.9737463 22.5496139,20.8126081 22.7855282,20.5225593 C23.0214425,20.2389561 23.1170835,19.8651155 23.0533229,19.4977205 C22.6452548,17.1902217 21.5677002,15.2823455 19.8652915,13.8256563 C17.8504557,12.111146 15.1215009,11.2409998 11.7549398,11.2409998 C9.47868538,11.2409998 7.47022563,11.6277315 5.78694508,12.3883037 C4.09728846,13.148876 2.77744349,14.2059425 1.87204258,15.5272756 C0.960265619,16.8486087 0.501189105,18.3375255 0.501189105,19.9424619 C0.501189105,21.8954567 0.998521995,23.4681654 1.98681171,24.6219148 C2.9623493,25.7692187 4.1419209,26.6329194 5.49364619,27.1872347 C6.8262433,27.7351045 8.56053235,28.2765288 10.6518809,28.7857255 C12.6667167,29.3335953 14.1523393,29.8363465 15.0704924,30.2939789 C15.950389,30.7322748 16.3775852,31.370382 16.3775852,32.2405282 C16.3775852,33.0526647 16.0269018,33.7036629 15.3000306,34.2257507 C14.5667834,34.7542839 13.5338612,35.0185505 12.2203923,35.0185505 C10.8750431,35.0185505 9.73372788,34.6640465 8.84107911,33.9679296 C8.1588404,33.4393963 7.70613995,32.8206257 7.46384957,32.0858356 C7.29807194,31.5701934 6.76885873,31.2092438 6.18226096,31.2092438 L1.23443631,31.2092438 C0.864624678,31.2092438 0.51394123,31.3768275 0.278026911,31.6733218 C0.0421125909,31.9762616 -0.0535283495,32.3629932 0.0293604655,32.7432794 C0.297155099,33.9937117 0.832744365,35.1667977 1.62337614,36.2432008 C2.70093073,37.69989 4.18017728,38.8665304 6.01648333,39.71734 C7.85278939,40.5617041 9.95689008,40.9742179 12.2650248,40.9742179 C14.5093988,40.9742179 16.4987304,40.6132684 18.182011,39.8720327 C19.8716676,39.1243515 21.1915125,38.0801761 22.1032895,36.7523974 C23.0150665,35.4246188 23.474143,33.9034743 23.474143,32.2276372 C23.4295105,30.3390976 22.9130495,28.7728345 21.9311358,27.5997485 Z" id="Path"></path>
                    <g transform="translate(146.4174, 0)" id="Path">
                        <path d="M9.11776965,4.60855211 C9.11776965,7.15453545 7.07742959,9.21710423 4.55888483,9.21710423 C2.04034006,9.21710423 0,7.15453545 0,4.60855211 C0,2.06256878 2.04034006,0 4.55888483,0 C7.07742959,0 9.11776965,2.06256878 9.11776965,4.60855211 Z"></path>
                        <path d="M8.05296718,28.9275271 L8.05296718,12.684798 C8.05296718,12.0853639 7.57476248,11.6019494 6.98178865,11.6019494 L2.05309219,11.6019494 C1.46011836,11.6019494 0.981913655,12.0595818 0.981913655,12.6590159 L1.03929822,28.9275271 C1.03929822,35.8371325 4.271962,39.9429335 10.1889482,40.6519415 C10.8201784,40.7292878 11.3621437,40.2136457 11.3621437,39.5755384 L11.3621437,34.6382644 C11.3621437,34.1870775 11.087973,33.7616727 10.6607768,33.6263166 C8.91373565,33.0591102 8.05296718,31.5121836 8.05296718,28.9275271 Z"></path>
                    </g>
                </g>
            </g>
        </g>
    </g>
</svg>